<mxfile host="www.draw.io" modified="2019-11-12T07:54:54.193Z" agent="Mozilla/5.0 (Macintosh; Intel Mac OS X 10_15) AppleWebKit/605.1.15 (KHTML, like Gecko) Version/13.0.2 Safari/605.1.15" etag="QuueQWbuXv9f8o8dRjZV" version="12.2.3" type="github" pages="1">
  <diagram id="Dfbm3jljezH9fqP2nPEv" name="第 1 页">
    <mxGraphModel dx="630" dy="599" grid="1" gridSize="10" guides="1" tooltips="1" connect="1" arrows="1" fold="1" page="1" pageScale="1" pageWidth="2339" pageHeight="3300" math="0" shadow="0">
      <root>
        <mxCell id="0"/>
        <mxCell id="1" parent="0"/>
        <mxCell id="uBOD4vYmt5I6pWOrNfsd-1" value="ProjectConfig" style="strokeWidth=2;whiteSpace=wrap;html=1;align=center;fontSize=14;" parent="1" vertex="1">
          <mxGeometry x="190" y="310" width="100" height="100" as="geometry"/>
        </mxCell>
        <mxCell id="uBOD4vYmt5I6pWOrNfsd-2" value="PackageConfigProtocol" style="swimlane;childLayout=stackLayout;horizontal=1;startSize=30;horizontalStack=0;fillColor=#008cff;fontColor=#FFFFFF;rounded=1;fontSize=14;fontStyle=0;strokeWidth=2;resizeParent=0;resizeLast=1;shadow=0;dashed=0;align=center;" parent="1" vertex="1">
          <mxGeometry x="620" y="100" width="190" height="190" as="geometry"/>
        </mxCell>
        <mxCell id="uBOD4vYmt5I6pWOrNfsd-3" value="apiServer&#xa;h5Server&#xa;appID&#xa;qqAppID&#xa;...&#xa;...&#xa;gmeAppID&#xa;gmeAuthKey" style="align=left;strokeColor=none;fillColor=none;spacingLeft=4;fontSize=12;verticalAlign=top;resizable=0;rotatable=0;part=1;" parent="uBOD4vYmt5I6pWOrNfsd-2" vertex="1">
          <mxGeometry y="30" width="190" height="160" as="geometry"/>
        </mxCell>
        <mxCell id="uBOD4vYmt5I6pWOrNfsd-4" value="PackageType" style="swimlane;childLayout=stackLayout;horizontal=1;startSize=30;horizontalStack=0;fillColor=#008cff;fontColor=#FFFFFF;rounded=1;fontSize=14;fontStyle=0;strokeWidth=2;resizeParent=0;resizeLast=1;shadow=0;dashed=0;align=center;" parent="1" vertex="1">
          <mxGeometry x="370" y="150" width="160" height="120" as="geometry"/>
        </mxCell>
        <mxCell id="uBOD4vYmt5I6pWOrNfsd-5" value="Talkgo&#xa;others&#xa;&#xa;+ get&#xa;+ set" style="align=left;strokeColor=none;fillColor=none;spacingLeft=4;fontSize=12;verticalAlign=top;resizable=0;rotatable=0;part=1;" parent="uBOD4vYmt5I6pWOrNfsd-4" vertex="1">
          <mxGeometry y="30" width="160" height="90" as="geometry"/>
        </mxCell>
        <mxCell id="uBOD4vYmt5I6pWOrNfsd-17" style="edgeStyle=orthogonalEdgeStyle;rounded=0;orthogonalLoop=1;jettySize=auto;html=1;exitX=0.5;exitY=1;exitDx=0;exitDy=0;exitPerimeter=0;entryX=0.5;entryY=0;entryDx=0;entryDy=0;" parent="1" source="uBOD4vYmt5I6pWOrNfsd-8" target="uBOD4vYmt5I6pWOrNfsd-9" edge="1">
          <mxGeometry relative="1" as="geometry"/>
        </mxCell>
        <mxCell id="uBOD4vYmt5I6pWOrNfsd-8" value="开始" style="strokeWidth=2;html=1;shape=mxgraph.flowchart.start_1;whiteSpace=wrap;" parent="1" vertex="1">
          <mxGeometry x="100" y="800" width="100" height="60" as="geometry"/>
        </mxCell>
        <mxCell id="uBOD4vYmt5I6pWOrNfsd-13" style="edgeStyle=orthogonalEdgeStyle;rounded=0;orthogonalLoop=1;jettySize=auto;html=1;exitX=0.5;exitY=1;exitDx=0;exitDy=0;entryX=0.5;entryY=0;entryDx=0;entryDy=0;" parent="1" source="uBOD4vYmt5I6pWOrNfsd-9" target="uBOD4vYmt5I6pWOrNfsd-10" edge="1">
          <mxGeometry relative="1" as="geometry"/>
        </mxCell>
        <mxCell id="uBOD4vYmt5I6pWOrNfsd-9" value="配置当前包名" style="rounded=1;whiteSpace=wrap;html=1;absoluteArcSize=1;arcSize=14;strokeWidth=2;" parent="1" vertex="1">
          <mxGeometry x="100" y="890" width="100" height="100" as="geometry"/>
        </mxCell>
        <mxCell id="uBOD4vYmt5I6pWOrNfsd-12" value="" style="edgeStyle=orthogonalEdgeStyle;rounded=0;orthogonalLoop=1;jettySize=auto;html=1;" parent="1" source="uBOD4vYmt5I6pWOrNfsd-10" target="uBOD4vYmt5I6pWOrNfsd-11" edge="1">
          <mxGeometry relative="1" as="geometry"/>
        </mxCell>
        <mxCell id="uBOD4vYmt5I6pWOrNfsd-10" value="获取当前环境" style="rounded=1;whiteSpace=wrap;html=1;absoluteArcSize=1;arcSize=14;strokeWidth=2;" parent="1" vertex="1">
          <mxGeometry x="100" y="1020" width="100" height="100" as="geometry"/>
        </mxCell>
        <mxCell id="uBOD4vYmt5I6pWOrNfsd-11" value="得到当前配置信息" style="rounded=1;whiteSpace=wrap;html=1;absoluteArcSize=1;arcSize=14;strokeWidth=2;" parent="1" vertex="1">
          <mxGeometry x="100" y="1150" width="100" height="100" as="geometry"/>
        </mxCell>
        <mxCell id="uBOD4vYmt5I6pWOrNfsd-14" value="" style="edgeStyle=entityRelationEdgeStyle;fontSize=12;html=1;endArrow=ERmandOne;exitX=1;exitY=0.5;exitDx=0;exitDy=0;" parent="1" source="uBOD4vYmt5I6pWOrNfsd-1" target="uBOD4vYmt5I6pWOrNfsd-5" edge="1">
          <mxGeometry width="100" height="100" relative="1" as="geometry">
            <mxPoint x="410" y="400" as="sourcePoint"/>
            <mxPoint x="510" y="300" as="targetPoint"/>
          </mxGeometry>
        </mxCell>
        <mxCell id="uBOD4vYmt5I6pWOrNfsd-16" value="" style="edgeStyle=entityRelationEdgeStyle;fontSize=12;html=1;endArrow=ERmandOne;exitX=1;exitY=0.5;exitDx=0;exitDy=0;entryX=0;entryY=0.5;entryDx=0;entryDy=0;" parent="1" source="uBOD4vYmt5I6pWOrNfsd-1" target="uBOD4vYmt5I6pWOrNfsd-7" edge="1">
          <mxGeometry width="100" height="100" relative="1" as="geometry">
            <mxPoint x="210" y="580" as="sourcePoint"/>
            <mxPoint x="310" y="480" as="targetPoint"/>
          </mxGeometry>
        </mxCell>
        <mxCell id="uBOD4vYmt5I6pWOrNfsd-6" value="EnvironmentType" style="swimlane;childLayout=stackLayout;horizontal=1;startSize=30;horizontalStack=0;fillColor=#008cff;fontColor=#FFFFFF;rounded=1;fontSize=14;fontStyle=0;strokeWidth=2;resizeParent=0;resizeLast=1;shadow=0;dashed=0;align=center;" parent="1" vertex="1">
          <mxGeometry x="370" y="450" width="160" height="150" as="geometry"/>
        </mxCell>
        <mxCell id="uBOD4vYmt5I6pWOrNfsd-7" value="iOS专用环境&#xa;Test34环境&#xa;预发布环境&#xa;正式环境&#xa;&#xa;+ get&#xa;+ set" style="align=left;strokeColor=none;fillColor=none;spacingLeft=4;fontSize=12;verticalAlign=top;resizable=0;rotatable=0;part=1;" parent="uBOD4vYmt5I6pWOrNfsd-6" vertex="1">
          <mxGeometry y="30" width="160" height="120" as="geometry"/>
        </mxCell>
        <mxCell id="uBOD4vYmt5I6pWOrNfsd-18" value="SwiftyUserDefault" style="strokeWidth=2;rounded=1;arcSize=10;whiteSpace=wrap;html=1;align=center;fontSize=14;" parent="1" vertex="1">
          <mxGeometry x="600" y="490" width="180" height="100" as="geometry"/>
        </mxCell>
        <mxCell id="uBOD4vYmt5I6pWOrNfsd-19" style="edgeStyle=orthogonalEdgeStyle;rounded=0;orthogonalLoop=1;jettySize=auto;html=1;exitX=1;exitY=0.5;exitDx=0;exitDy=0;entryX=0;entryY=0.5;entryDx=0;entryDy=0;" parent="1" source="uBOD4vYmt5I6pWOrNfsd-7" target="uBOD4vYmt5I6pWOrNfsd-18" edge="1">
          <mxGeometry relative="1" as="geometry"/>
        </mxCell>
        <mxCell id="uBOD4vYmt5I6pWOrNfsd-20" style="edgeStyle=orthogonalEdgeStyle;rounded=0;orthogonalLoop=1;jettySize=auto;html=1;exitX=1;exitY=0.25;exitDx=0;exitDy=0;" parent="1" source="uBOD4vYmt5I6pWOrNfsd-5" target="uBOD4vYmt5I6pWOrNfsd-3" edge="1">
          <mxGeometry relative="1" as="geometry"/>
        </mxCell>
      </root>
    </mxGraphModel>
  </diagram>
</mxfile>
